<svg width="69" height="22" viewBox="0 0 69 22" fill="none" xmlns="http://www.w3.org/2000/svg">
<path d="M5.52 17.336C4.976 17.336 4.552 17.184 4.248 16.88C3.96 16.56 3.8 15.96 3.768 15.08C3.752 14.136 3.704 13.2 3.624 12.272C3.544 11.344 3.416 10.464 3.24 9.632C3 8.416 2.672 7.32 2.256 6.344C1.84 5.368 1.256 4.528 0.504 3.824C0.376 3.696 0.272 3.576 0.192 3.464C0.112 3.352 0.072 3.224 0.072 3.08C0.072 2.744 0.248 2.424 0.6 2.12C0.952 1.8 1.368 1.64 1.848 1.64C2.408 1.64 2.888 1.88 3.288 2.36C3.688 2.84 4.032 3.512 4.32 4.376C4.656 5.256 4.92 6.216 5.112 7.256C5.304 8.296 5.432 9.36 5.496 10.448C5.576 11.52 5.616 12.56 5.616 13.568C5.616 13.92 5.664 14.152 5.76 14.264C5.856 14.376 6.024 14.432 6.264 14.432C6.792 14.432 7.312 14.272 7.824 13.952C8.352 13.632 8.824 13.2 9.24 12.656C9.672 12.096 10.016 11.48 10.272 10.808C10.528 10.136 10.664 9.456 10.68 8.768C10.696 8.048 10.568 7.352 10.296 6.68C10.04 5.992 9.704 5.408 9.288 4.928C9.176 4.8 9.088 4.688 9.024 4.592C8.976 4.48 8.952 4.368 8.952 4.256C8.952 4 9.056 3.752 9.264 3.512C9.472 3.272 9.712 3.072 9.984 2.912C10.256 2.752 10.488 2.672 10.68 2.672C11.08 2.672 11.416 2.968 11.688 3.56C11.976 4.136 12.216 4.84 12.408 5.672C12.68 6.728 12.872 7.912 12.984 9.224C13.096 10.536 13.152 11.92 13.152 13.376C13.152 13.776 13.192 14.048 13.272 14.192C13.352 14.336 13.528 14.408 13.8 14.408C14.376 14.408 14.936 14.2 15.48 13.784C16.024 13.368 16.504 12.8 16.92 12.08C17.352 11.344 17.688 10.512 17.928 9.584C18.184 8.64 18.312 7.648 18.312 6.608C18.312 5.824 18.248 5.192 18.12 4.712C18.008 4.216 17.896 3.864 17.784 3.656C17.624 3.352 17.544 3.096 17.544 2.888C17.544 2.648 17.648 2.424 17.856 2.216C18.08 1.992 18.344 1.808 18.648 1.664C18.952 1.52 19.216 1.448 19.44 1.448C19.792 1.448 20.04 1.6 20.184 1.904C20.344 2.192 20.44 2.552 20.472 2.984C20.52 3.416 20.544 3.824 20.544 4.208C20.544 5.312 20.424 6.472 20.184 7.688C19.96 8.888 19.632 10.064 19.2 11.216C18.768 12.352 18.248 13.384 17.64 14.312C17.048 15.224 16.376 15.96 15.624 16.52C14.872 17.064 14.064 17.336 13.2 17.336C12.624 17.336 12.2 17.208 11.928 16.952C11.656 16.696 11.48 16.336 11.4 15.872C11.32 15.408 11.28 14.864 11.28 14.24C11.28 13.872 11.28 13.528 11.28 13.208C11.296 12.872 11.304 12.568 11.304 12.296C10.568 13.944 9.68 15.2 8.64 16.064C7.6 16.912 6.56 17.336 5.52 17.336ZM25.2821 17.312C24.1781 17.312 23.2901 17.016 22.6181 16.424C21.9621 15.816 21.6341 14.928 21.6341 13.76C21.6341 13.216 21.7061 12.688 21.8501 12.176C22.0101 11.664 22.2181 11.184 22.4741 10.736C22.2181 10.896 22.0261 10.976 21.8981 10.976C21.7061 10.976 21.5701 10.872 21.4901 10.664C21.4261 10.44 21.3941 10.224 21.3941 10.016C21.3941 9.648 21.4661 9.36 21.6101 9.152C21.7701 8.928 21.9221 8.76 22.0661 8.648C22.4021 8.36 22.9301 8.048 23.6501 7.712C24.3701 7.36 25.2341 7.184 26.2421 7.184C27.6181 7.184 28.6821 7.568 29.4341 8.336C30.2021 9.104 30.5861 10.176 30.5861 11.552C30.5861 12.624 30.3621 13.6 29.9141 14.48C29.4661 15.344 28.8421 16.032 28.0421 16.544C27.2581 17.056 26.3381 17.312 25.2821 17.312ZM26.0261 14.864C26.8261 14.864 27.4981 14.616 28.0421 14.12C28.6021 13.608 28.8821 12.936 28.8821 12.104C28.8821 11.24 28.6021 10.624 28.0421 10.256C27.4821 9.888 26.8341 9.704 26.0981 9.704C25.7621 9.704 25.4581 9.736 25.1861 9.8C24.9141 9.864 24.6581 9.944 24.4181 10.04C24.1941 10.36 23.9941 10.72 23.8181 11.12C23.6421 11.52 23.5541 11.96 23.5541 12.44C23.5541 13.24 23.7941 13.848 24.2741 14.264C24.7541 14.664 25.3381 14.864 26.0261 14.864ZM33.8754 17.264C33.6194 17.264 33.4114 17.216 33.2514 17.12C33.1074 17.04 33.0594 16.896 33.1074 16.688C33.2834 16 33.4274 15.304 33.5394 14.6C33.6674 13.88 33.7314 13.192 33.7314 12.536C33.7314 11.688 33.6754 11.072 33.5634 10.688C33.4674 10.288 33.3314 10.016 33.1554 9.872C32.9794 9.712 32.7634 9.592 32.5074 9.512C32.3954 9.464 32.2914 9.4 32.1954 9.32C32.1154 9.24 32.0754 9.128 32.0754 8.984C32.0754 8.76 32.1634 8.512 32.3394 8.24C32.5154 7.968 32.7634 7.736 33.0834 7.544C33.4034 7.336 33.7714 7.232 34.1874 7.232C34.7314 7.232 35.1074 7.424 35.3154 7.808C35.5394 8.176 35.6514 8.664 35.6514 9.272C35.9394 8.632 36.2914 8.128 36.7074 7.76C37.1394 7.376 37.6754 7.184 38.3154 7.184C38.7474 7.184 39.1074 7.28 39.3954 7.472C39.6834 7.664 39.8274 7.976 39.8274 8.408C39.8274 8.84 39.6834 9.248 39.3954 9.632C39.1234 10 38.8434 10.184 38.5554 10.184C38.5074 10.184 38.4514 10.176 38.3874 10.16C38.3234 10.144 38.2674 10.104 38.2194 10.04C38.0114 9.784 37.7554 9.656 37.4514 9.656C36.9874 9.656 36.5794 9.96 36.2274 10.568C35.8754 11.176 35.6834 12.016 35.6514 13.088C35.6674 13.488 35.6754 13.896 35.6754 14.312C35.6914 14.728 35.6994 15.032 35.6994 15.224C35.6994 15.816 35.5314 16.304 35.1954 16.688C34.8754 17.072 34.4354 17.264 33.8754 17.264ZM43.0526 17.312C42.0926 17.312 41.3326 16.992 40.7726 16.352C40.2286 15.712 39.9566 14.84 39.9566 13.736C39.9566 12.92 40.0846 12.12 40.3406 11.336C40.6126 10.552 40.9886 9.848 41.4686 9.224C41.9486 8.6 42.5086 8.104 43.1486 7.736C43.7886 7.368 44.4846 7.184 45.2366 7.184C45.7166 7.184 46.1406 7.256 46.5086 7.4C46.8926 7.544 47.2286 7.728 47.5166 7.952C47.5006 6.864 47.4446 5.888 47.3486 5.024C47.2526 4.16 47.0206 3.36 46.6526 2.624C46.5886 2.496 46.5326 2.384 46.4846 2.288C46.4526 2.176 46.4366 2.072 46.4366 1.976C46.4366 1.752 46.5246 1.544 46.7006 1.352C46.8926 1.16 47.1246 0.999999 47.3966 0.871999C47.6686 0.743999 47.9246 0.68 48.1646 0.68C48.5966 0.68 48.9166 0.872 49.1246 1.256C49.3486 1.624 49.4926 2.136 49.5566 2.792C49.6206 3.432 49.6526 4.168 49.6526 5C49.6526 6.216 49.5966 7.312 49.4846 8.288C49.3726 9.264 49.2686 10.12 49.1726 10.856C49.1086 11.336 49.0526 11.752 49.0046 12.104C48.9566 12.456 48.9326 12.744 48.9326 12.968C48.9326 14.104 49.4206 14.776 50.3966 14.984C50.6526 15.032 50.7806 15.2 50.7806 15.488C50.7806 15.664 50.7246 15.888 50.6126 16.16C50.5166 16.432 50.3326 16.68 50.0606 16.904C49.7886 17.112 49.3966 17.216 48.8846 17.216C48.1966 17.216 47.7326 16.984 47.4926 16.52C47.2526 16.056 47.1326 15.352 47.1326 14.408C46.6846 15.224 46.1166 15.912 45.4286 16.472C44.7406 17.032 43.9486 17.312 43.0526 17.312ZM43.7966 14.744C44.2446 14.744 44.6926 14.6 45.1406 14.312C45.5886 14.024 45.9886 13.632 46.3406 13.136C46.5486 12.832 46.7326 12.488 46.8926 12.104C47.0686 11.704 47.2286 11.304 47.3726 10.904C46.5566 10.168 45.6526 9.8 44.6606 9.8C43.7966 9.8 43.1086 10.064 42.5966 10.592C42.0846 11.104 41.8286 11.744 41.8286 12.512C41.8286 13.168 42.0206 13.704 42.4046 14.12C42.7886 14.536 43.2526 14.744 43.7966 14.744Z" fill="#6949FF"/>
<path d="M66.0859 21.224C65.1579 21.224 64.2859 21.008 63.4699 20.576C62.6699 20.16 61.9419 19.632 61.2859 18.992C60.6459 18.368 60.0779 17.744 59.5819 17.12C59.2939 17.184 58.9979 17.232 58.6939 17.264C58.4059 17.296 58.1179 17.312 57.8299 17.312C56.8059 17.312 55.8939 17.112 55.0939 16.712C54.2939 16.312 53.6619 15.752 53.1979 15.032C52.7499 14.312 52.5099 13.48 52.4779 12.536C52.4619 11.256 52.9019 10.144 53.7979 9.2C54.5499 8.4 55.2539 8 55.9099 8C56.2459 8 56.5019 8.12 56.6779 8.36C56.8539 8.584 57.0459 8.928 57.2539 9.392C57.6379 10.208 58.0859 11.032 58.5979 11.864C59.1259 12.68 59.7099 13.496 60.3499 14.312C61.3419 13.944 62.1579 13.296 62.7979 12.368C63.4379 11.44 63.7419 10.328 63.7099 9.032C63.6939 7.944 63.4619 7.04 63.0139 6.32C62.5659 5.6 61.9819 5.064 61.2619 4.712C60.5579 4.344 59.7899 4.16 58.9579 4.16C58.0779 4.16 57.3019 4.336 56.6299 4.688C55.9739 5.024 55.4139 5.432 54.9499 5.912C54.4859 6.376 54.1179 6.808 53.8459 7.208C53.7819 7.304 53.6939 7.368 53.5819 7.4C53.4699 7.432 53.3739 7.448 53.2939 7.448C53.0539 7.448 52.8859 7.352 52.7899 7.16C52.7099 6.968 52.6699 6.728 52.6699 6.44C52.6539 5.896 52.7979 5.336 53.1019 4.76C53.4219 4.168 53.8699 3.624 54.4459 3.128C55.0379 2.632 55.7339 2.232 56.5339 1.928C57.3339 1.624 58.2219 1.472 59.1979 1.472C61.1659 1.472 62.7019 2.088 63.8059 3.32C64.9099 4.552 65.4779 6.232 65.5099 8.36C65.5419 10.136 65.2059 11.696 64.5019 13.04C63.8139 14.384 62.8779 15.432 61.6939 16.184C62.1099 16.6 62.5899 16.984 63.1339 17.336C63.6779 17.704 64.2539 17.992 64.8619 18.2C65.4699 18.408 66.0619 18.512 66.6379 18.512C67.0699 18.512 67.4459 18.464 67.7659 18.368C68.1019 18.272 68.3019 18.224 68.3659 18.224C68.4939 18.224 68.5899 18.336 68.6539 18.56C68.7339 18.8 68.7739 19.032 68.7739 19.256C68.7739 19.944 68.5019 20.44 67.9579 20.744C67.4299 21.064 66.8059 21.224 66.0859 21.224ZM58.0219 14.6C57.4619 13.896 57.0139 13.224 56.6779 12.584C56.3419 11.944 56.0139 11.248 55.6939 10.496C55.5819 10.304 55.4539 10.208 55.3099 10.208C55.0859 10.208 54.8699 10.36 54.6619 10.664C54.4539 10.968 54.3579 11.336 54.3739 11.768C54.3899 12.504 54.7339 13.136 55.4059 13.664C56.0939 14.192 56.9659 14.504 58.0219 14.6Z" fill="#FFC107"/>
</svg>
